<svg xmlns:dc="http://purl.org/dc/elements/1.1/" xmlns:cc="http://creativecommons.org/ns#"
  xmlns:rdf="http://www.w3.org/1999/02/22-rdf-syntax-ns#" xmlns:svg="http://www.w3.org/2000/svg"
  xmlns="http://www.w3.org/2000/svg" xmlns:sodipodi="http://sodipodi.sourceforge.net/DTD/sodipodi-0.dtd"
  xmlns:inkscape="http://www.inkscape.org/namespaces/inkscape" version="1.1" id="svg2" xml:space="preserve" width="4000"
  height="997.33331" viewBox="0 0 4000 997.33331" sodipodi:docname="VectorEPS_ByTailorBrands.eps">
  <metadata id="metadata8">
    <rdf:RDF>
      <cc:Work rdf:about="">
        <dc:format>image/svg+xml</dc:format>
        <dc:type rdf:resource="http://purl.org/dc/dcmitype/StillImage" />
      </cc:Work>
    </rdf:RDF>
  </metadata>
  <defs id="defs6">
    <clipPath clipPathUnits="userSpaceOnUse" id="clipPath20">
      <path d="M 8350,3740 V 10 h 350 V 7470 H 8350 V 3740" id="path18" />
    </clipPath>
    <clipPath clipPathUnits="userSpaceOnUse" id="clipPath30">
      <path
        d="M 380,6398.97 C 214.57,6371.79 58.6719,6224 20.3398,6058 -4.14063,5952 14.9609,5813.34 67.1719,5718 86.4883,5682.71 479.5,5284.62 1471.5,4295.5 2736.5,3034.17 2854.23,2919.49 2913,2891.32 c 129.36,-62.02 277,-62.11 407,-0.25 60.34,28.71 164,129.93 1446,1411.93 1597,1597 1449,1428.78 1449,1647 0,119 -1.48,128.12 -30.91,190 C 6074.46,6370.58 5813,6466.32 5575,6363.04 5519.47,6338.94 5426,6248.11 4320,5143.5 3663,4487.32 3120.5,3950 3115,3950 c -5.51,0 -545,534.1 -1200,1188 -924,922.45 -1201.621,1194.13 -1242,1215.42 -53,27.94 -166.102,57.46 -213,55.58 -13.641,-0.55 -50,-5.11 -80,-10.03"
        clip-rule="evenodd" id="path28" />
    </clipPath>
    <clipPath clipPathUnits="userSpaceOnUse" id="clipPath36">
      <path d="M 0,0 H 30000 V 7480 H 0 Z" id="path34" />
    </clipPath>
    <clipPath clipPathUnits="userSpaceOnUse" id="clipPath46">
      <path
        d="m 11592,6400.21 c -110,-26.36 -172,-160.17 -122.9,-265.21 23.4,-50 1161.5,-1188.49 1203.9,-1204.29 36,-13.43 118,-13.41 154,0.02 38.4,14.35 1178.8,1153.27 1204.7,1203.27 15.7,30.11 19.4,52 16.2,96 -8.7,121 -116,197.63 -235.9,168.44 -44.2,-10.75 -77.5,-41.85 -554.5,-517.44 l -507.5,-506 -507.5,506 c -475,473.6 -510.5,506.74 -554.5,517.51 -51,12.49 -51,12.49 -96,1.7"
        clip-rule="evenodd" id="path44" />
    </clipPath>
    <clipPath clipPathUnits="userSpaceOnUse" id="clipPath52">
      <path d="M 0,0 H 30000 V 7480 H 0 Z" id="path50" />
    </clipPath>
    <clipPath clipPathUnits="userSpaceOnUse" id="clipPath62">
      <path
        d="m 15425,6405.67 c -5.6,-2.04 -22,-6.39 -37,-9.78 -37.2,-8.42 -97.8,-62.89 -114.6,-102.89 -11,-26.15 -13.4,-214 -13.4,-1027 0,-679 3.4,-1003.89 10.6,-1023 22.7,-59.51 109.4,-122.32 169.4,-122.62 45,-0.22 100.1,20.61 135,51.07 69.3,60.45 66.2,4.55 62.9,1109.55 l -2.9,997 -30,42.5 c -16.2,23 -46.1,50.75 -65,60.47 -36,18.49 -96.5,31.49 -115,24.7"
        clip-rule="evenodd" id="path60" />
    </clipPath>
    <clipPath clipPathUnits="userSpaceOnUse" id="clipPath68">
      <path d="M 0,0 H 30000 V 7480 H 0 Z" id="path66" />
    </clipPath>
    <clipPath clipPathUnits="userSpaceOnUse" id="clipPath78">
      <path
        d="m 19966,6397.76 c -54.1,-14.23 -109.8,-72.76 -124.5,-130.76 -14.4,-57.32 -15.8,-1059 -1.6,-1192 24.5,-230 119.3,-439.21 279.6,-617 109,-121 311.1,-248 394.5,-248 136,0 228,148.66 166.6,269 -22.1,43.2 -42.6,60.86 -150.6,129.82 -99.5,63.55 -190.5,164.18 -240.7,266.18 -75.2,152.92 -73.2,132 -76.9,795 -2.3,398 -7,603.94 -14.1,622 -15.7,39.19 -80.3,94.52 -125.3,107.2 -43.9,12.37 -55,12.22 -107,-1.44"
        clip-rule="evenodd" id="path76" />
    </clipPath>
    <clipPath clipPathUnits="userSpaceOnUse" id="clipPath84">
      <path d="M 0,0 H 30000 V 7480 H 0 Z" id="path82" />
    </clipPath>
    <clipPath clipPathUnits="userSpaceOnUse" id="clipPath94">
      <path
        d="m 21745,6405.5 c -5.6,-1.94 -22,-6.11 -37,-9.37 -34.2,-7.44 -84.5,-50.13 -106.2,-90.13 -15.2,-28 -17.3,-90 -22.3,-641 -5.5,-606 -5.6,-610.46 -28.8,-680 -61.8,-186 -170.1,-315.84 -339.7,-407.44 -125,-67.49 -155.5,-204.34 -67.8,-304.56 65.6,-75 137.8,-81.7 252.8,-23.45 236.6,119.87 425.4,344.45 513.9,611.45 45.2,136.19 50.1,217 50.1,824 v 571 l -22.5,44 c -27.1,53.08 -86.5,96.29 -142.5,103.71 -22,2.91 -44.5,3.71 -50,1.79"
        clip-rule="evenodd" id="path92" />
    </clipPath>
    <clipPath clipPathUnits="userSpaceOnUse" id="clipPath100">
      <path d="M 0,0 H 30000 V 7480 H 0 Z" id="path98" />
    </clipPath>
    <clipPath clipPathUnits="userSpaceOnUse" id="clipPath110">
      <path
        d="m 23266,6397.68 c -58.1,-15.35 -111.4,-74.68 -125.5,-139.68 -8.4,-38.6 -10.7,-318 -8.5,-1028 l 3,-975 23.6,-38 c 78.1,-125.53 251.7,-125 328.8,1 l 22.6,37 v 1008 c 0,861 -2.1,1012.08 -14.7,1036 -21.1,40.38 -79.3,88.02 -122.3,100.16 -43.9,12.41 -55,12.25 -107,-1.48"
        clip-rule="evenodd" id="path108" />
    </clipPath>
    <clipPath clipPathUnits="userSpaceOnUse" id="clipPath116">
      <path d="M 0,0 H 30000 V 7480 H 0 Z" id="path114" />
    </clipPath>
    <clipPath clipPathUnits="userSpaceOnUse" id="clipPath126">
      <path
        d="m 24056,6395.7 c -47,-17.23 -94.1,-60.34 -112.1,-102.7 -17.5,-40.94 -17.5,-114 -0.1,-156 17.9,-43 77.7,-94.57 118.2,-101.97 18.1,-3.31 234,-4.68 479,-3.03 l 446,3 38,29.06 c 109.9,84.05 94,256.08 -30,324.41 -26.4,14.55 -82,16.83 -465,19.03 -353,2.03 -442.4,-0.2 -474,-11.8"
        clip-rule="evenodd" id="path124" />
    </clipPath>
    <clipPath clipPathUnits="userSpaceOnUse" id="clipPath132">
      <path d="M 0,0 H 30000 V 7480 H 0 Z" id="path130" />
    </clipPath>
    <clipPath clipPathUnits="userSpaceOnUse" id="clipPath142">
      <path
        d="m 26376,6397.56 c -52.2,-13.9 -109.1,-72.56 -124.7,-128.56 -9.4,-33.55 -11.6,-278 -9.3,-1029 l 3,-985 23.6,-38 c 78.1,-125.53 251.7,-125 328.8,1 l 22.6,37 v 1003 c 0,820 -2.5,1008.84 -13.5,1035 -18.2,43.3 -76.5,93.57 -123.5,106.51 -43.9,12.09 -55,11.89 -107,-1.95"
        clip-rule="evenodd" id="path140" />
    </clipPath>
    <clipPath clipPathUnits="userSpaceOnUse" id="clipPath148">
      <path d="M 0,0 H 30000 V 7480 H 0 Z" id="path146" />
    </clipPath>
    <clipPath clipPathUnits="userSpaceOnUse" id="clipPath158">
      <path
        d="M 17381,6284.54 C 17156.2,6176.98 16946.1,5956 16843.3,5719 c -109.7,-252.86 -122.6,-560 -34.4,-821 96,-284 308.9,-527.09 577.1,-658.98 76,-37.37 147.2,-43.08 200,-16.03 40,20.48 92.4,80.72 100,115.01 3.3,15 7.6,32.33 9.6,39 7.7,25.61 -24.9,116 -52.3,145 -15.6,16.5 -55.3,43.63 -88.3,60.29 -277.5,140.13 -439.8,417.71 -422,721.71 16.3,277 178.5,520.25 433,649.17 28,14.18 64.9,41.61 81.8,60.83 75.7,86.22 44.2,233.65 -60.8,284.44 -64.9,31.38 -119,27.73 -206,-13.9"
        clip-rule="evenodd" id="path156" />
    </clipPath>
    <clipPath clipPathUnits="userSpaceOnUse" id="clipPath164">
      <path d="M 0,0 H 30000 V 7480 H 0 Z" id="path162" />
    </clipPath>
    <clipPath clipPathUnits="userSpaceOnUse" id="clipPath174">
      <path
        d="m 18195,6303.22 c -67.5,-35.5 -105,-95.22 -105,-167.22 0,-88.71 35,-136.43 141,-192.25 36,-18.95 92.8,-57.31 125,-84.38 108,-90.86 141.9,-109.37 200,-109.37 64,0 99.3,12.42 138,48.56 55.4,51.76 72.9,147.44 39.6,217.44 -29.5,61.99 -181.6,185.69 -323.6,263.11 -62,33.8 -84.5,40.8 -130,40.39 -30,-0.27 -68.6,-7.67 -85,-16.28"
        clip-rule="evenodd" id="path172" />
    </clipPath>
    <clipPath clipPathUnits="userSpaceOnUse" id="clipPath180">
      <path d="M 0,0 H 30000 V 7480 H 0 Z" id="path178" />
    </clipPath>
    <clipPath clipPathUnits="userSpaceOnUse" id="clipPath190">
      <path
        d="m 24035,5435.71 c -38,-16.91 -80.5,-61.26 -94.7,-98.71 -14.7,-39 -13.2,-111 3.2,-150 18,-42.82 77.5,-93.86 124.5,-106.83 50,-13.79 524,-13.79 574,0 47,12.97 106.5,64.01 124.5,106.83 16.4,39 17.8,111 2.9,150 -14.7,38.44 -57.4,82.26 -96.4,98.95 -46,19.68 -593.7,19.47 -638,-0.24"
        clip-rule="evenodd" id="path188" />
    </clipPath>
    <clipPath clipPathUnits="userSpaceOnUse" id="clipPath196">
      <path d="M 0,0 H 30000 V 7480 H 0 Z" id="path194" />
    </clipPath>
    <clipPath clipPathUnits="userSpaceOnUse" id="clipPath206">
      <path
        d="m 17867,5405.14 c -140,-49.97 -170,-241.04 -52,-331.13 l 38,-29.01 258.5,-3 258.5,-3 v -183 c 0,-210 8.2,-191.65 -115,-256.94 -103,-54.57 -141.8,-91.47 -159.9,-152.06 -20.8,-70 -7.4,-125.55 43.8,-181 55.2,-59.75 124.1,-75.54 205.1,-46.96 124,43.75 331.7,193.9 381.6,275.96 l 24.4,40 v 373 c 0,306 -2.6,378.03 -14.7,401 -21.4,40.82 -79.3,87.87 -123.3,100.14 -60,16.73 -696.5,13.31 -745,-4"
        clip-rule="evenodd" id="path204" />
    </clipPath>
    <clipPath clipPathUnits="userSpaceOnUse" id="clipPath212">
      <path d="M 0,0 H 30000 V 7480 H 0 Z" id="path210" />
    </clipPath>
    <clipPath clipPathUnits="userSpaceOnUse" id="clipPath222">
      <path
        d="m 11593,5290.86 c -48,-11.64 -102.9,-57.98 -124.3,-104.86 -17.4,-38.08 -18.7,-72 -18.7,-476 0,-402 1.4,-438.03 18.6,-475 31.8,-68.43 102.4,-115 174.4,-115 46,0 115.6,38.54 151.8,84 l 30.2,38 2.9,442 c 3,469 1.2,491.33 -44.5,546 -44.3,52.94 -121.4,77.6 -190.4,60.86"
        clip-rule="evenodd" id="path220" />
    </clipPath>
    <clipPath clipPathUnits="userSpaceOnUse" id="clipPath228">
      <path d="M 0,0 H 30000 V 7480 H 0 Z" id="path226" />
    </clipPath>
    <clipPath clipPathUnits="userSpaceOnUse" id="clipPath238">
      <path
        d="m 13812,5287.89 c -54,-12 -116.5,-71.41 -131.4,-124.89 -6.7,-24.05 -10.6,-194 -10.6,-463 0,-391 1.5,-428.28 18.7,-466 30.8,-67.75 105.3,-114.62 181.3,-114.07 68,0.49 163.1,77.72 174.9,142.07 3.4,18.16 4.7,231.5 3.1,474.5 l -3,441.5 -30.8,38 c -54.6,67.35 -119.2,90.33 -202.2,71.89"
        clip-rule="evenodd" id="path236" />
    </clipPath>
    <clipPath clipPathUnits="userSpaceOnUse" id="clipPath244">
      <path d="M 0,0 H 30000 V 7480 H 0 Z" id="path242" />
    </clipPath>
    <clipPath clipPathUnits="userSpaceOnUse" id="clipPath254">
      <path
        d="m 24030.5,4481.5 c -18.6,-10 -48.3,-35.5 -64.5,-55.5 -25.5,-31.48 -30.5,-47 -33.5,-104 -3.1,-60 -0.6,-71.49 24.5,-110 18.1,-27.8 45.5,-51.66 77.5,-67.5 l 49.5,-24.5 h 430.5 c 397,0 433.6,1.44 470.5,18.5 139,64.27 154.2,251.82 27,332.38 l -46,29.12 h -450.5 c -420,0 -452.8,-1.25 -485,-18.5"
        clip-rule="evenodd" id="path252" />
    </clipPath>
    <clipPath clipPathUnits="userSpaceOnUse" id="clipPath260">
      <path d="M 0,0 H 30000 V 7480 H 0 Z" id="path258" />
    </clipPath>
    <clipPath clipPathUnits="userSpaceOnUse" id="clipPath270">
      <path
        d="m 27140.5,4481.5 c -18.6,-10 -48.3,-35.5 -64.5,-55.5 -41.7,-51.42 -48.8,-145 -15.6,-204 25.4,-45.14 58.6,-72.68 108.6,-90.13 23.9,-8.36 160,-11.87 460,-11.87 393,0 429.1,1.43 466,18.5 139,64.27 154.2,251.82 27,332.38 l -46,29.12 h -450.5 c -420,0 -452.8,-1.25 -485,-18.5"
        clip-rule="evenodd" id="path268" />
    </clipPath>
    <clipPath clipPathUnits="userSpaceOnUse" id="clipPath276">
      <path d="M 0,0 H 30000 V 7480 H 0 Z" id="path274" />
    </clipPath>
    <clipPath clipPathUnits="userSpaceOnUse" id="clipPath286">
      <path
        d="M 325,3732.99 C 212,3692.29 106.961,3602.42 57.3711,3504 8.91016,3407.82 8.98828,3410 12.0898,2320 L 15,1295 38.3398,1237 C 83.0117,1126 188.949,1020.58 297,979.621 418,933.738 584.559,945.469 690,1007.29 798.66,1071 886.949,1195 909.09,1315 c 15.32,83 15.082,2003.99 -0.25,2077 -28.36,135 -128.918,261.36 -254.84,320.22 -60.59,28.32 -79.5,32.16 -173.5,35.28 -83,2.75 -116.16,-0.34 -155.5,-14.51"
        clip-rule="evenodd" id="path284" />
    </clipPath>
    <clipPath clipPathUnits="userSpaceOnUse" id="clipPath292">
      <path d="M 0,0 H 30000 V 7480 H 0 Z" id="path290" />
    </clipPath>
    <clipPath clipPathUnits="userSpaceOnUse" id="clipPath302">
      <path
        d="M 5623,3729.13 C 5500,3690.27 5371.76,3560.45 5335.43,3438 5321.99,3392.7 5320,3253 5320,2354 c 0,-971 1.07,-1035.43 18.14,-1090 70.29,-224.73 318.86,-361.309 546.86,-300.488 145,38.678 267.71,151.408 314.04,288.488 20.78,61.46 20.96,71 20.96,1098 0,1160 4.37,1088.59 -73.57,1203 C 6032.84,3719.74 5820,3791.36 5623,3729.13"
        clip-rule="evenodd" id="path300" />
    </clipPath>
    <clipPath clipPathUnits="userSpaceOnUse" id="clipPath308">
      <path d="M 0,0 H 30000 V 7480 H 0 Z" id="path306" />
    </clipPath>
    <clipPath clipPathUnits="userSpaceOnUse" id="clipPath318">
      <path
        d="m 11538,3200.6 c -30,-19.07 -52.2,-43.27 -66.5,-72.6 l -21.5,-44 v -992.5 c 0,-810 2.5,-998.38 13.6,-1024.5 19.1,-45 88.3,-104.07 131.4,-112.23 90,-17.032 177.1,23.031 213.6,98.23 l 21.4,44 -5,2009 -27.8,42 c -55.7,84.25 -172.2,107.88 -259.2,52.6"
        clip-rule="evenodd" id="path316" />
    </clipPath>
    <clipPath clipPathUnits="userSpaceOnUse" id="clipPath324">
      <path d="M 0,0 H 30000 V 7480 H 0 Z" id="path322" />
    </clipPath>
    <clipPath clipPathUnits="userSpaceOnUse" id="clipPath334">
      <path
        d="m 12355,3216.49 c -43.1,-19.44 -92.5,-79.49 -105.5,-128.49 -20.8,-78 15.8,-164.85 88.5,-210.02 36.2,-22.46 44,-23.09 347,-27.98 l 310,-5 45,-26.63 c 176,-104.14 206.6,-326.85 63,-458.83 -79.8,-73.33 -81,-73.56 -430,-79.36 l -311,-5.18 -38,-30.85 c -57.8,-46.91 -78.6,-89.15 -77.6,-157.15 1,-73 37.7,-131.3 103.6,-164.7 42.4,-21.49 54,-22.3 320,-22.3 322,0 349.3,-4.77 427,-74.64 151.2,-135.93 121,-371.17 -60,-467.91 -40.2,-21.51 -55,-22.66 -352,-27.45 -237,-3.82 -315.9,-8.24 -335,-18.76 -142.6,-78.47 -142,-268.99 1,-341.869 35.2,-17.941 60,-19.371 336,-19.371 344,0 392.3,6.559 523,71.06 68.2,33.65 101.9,58.94 170.4,127.94 136.7,137.65 192.6,273 192.6,466 0,164 -52.5,313.53 -148.1,422 l -45.9,52 50.9,63 c 61.2,75.72 103.5,159 126.2,248 21.6,85 21.6,245 0.1,330 -52.5,207 -223,393.53 -428.2,468.37 l -73,26.63 -335,2.5 c -263,1.96 -341.4,-0.4 -365,-11.01"
        clip-rule="evenodd" id="path332" />
    </clipPath>
    <clipPath clipPathUnits="userSpaceOnUse" id="clipPath340">
      <path d="M 0,0 H 30000 V 7480 H 0 Z" id="path338" />
    </clipPath>
    <clipPath clipPathUnits="userSpaceOnUse" id="clipPath350">
      <path
        d="m 14825,3213.51 c -44,-23.15 -64.8,-43.79 -86.1,-85.51 -18.2,-35.57 -18.9,-75.5 -18.9,-1034.5 0,-996 0,-997.57 21.3,-1041.5 51.9,-107 200.2,-135.762 288.7,-55.98 75.1,67.7 71.2,2.98 67.9,1113.98 l -2.9,995 -23.5,38 c -47.7,76.98 -168.5,111.54 -246.5,70.51"
        clip-rule="evenodd" id="path348" />
    </clipPath>
    <clipPath clipPathUnits="userSpaceOnUse" id="clipPath356">
      <path d="M 0,0 H 30000 V 7480 H 0 Z" id="path354" />
    </clipPath>
    <clipPath clipPathUnits="userSpaceOnUse" id="clipPath366">
      <path
        d="m 18845,3214.1 c -47,-25.5 -66.8,-45.95 -86.4,-89.1 -21.4,-47.39 -23,-99 -4.4,-151 15.4,-43.33 1082.8,-1899 1122.7,-1952 71.3,-94.551 225.2,-93 298.8,3 22.4,29.37 29.2,50 32.5,100 5.3,78.31 67.6,-38 -605.8,1130 -381.1,661 -539.4,926.9 -562.4,944.52 -42,32.16 -148,40.09 -195,14.58"
        clip-rule="evenodd" id="path364" />
    </clipPath>
    <clipPath clipPathUnits="userSpaceOnUse" id="clipPath372">
      <path d="M 0,0 H 30000 V 7480 H 0 Z" id="path370" />
    </clipPath>
    <clipPath clipPathUnits="userSpaceOnUse" id="clipPath382">
      <path
        d="m 21405,3215.95 c -57.5,-24.98 -115,-112.95 -115,-175.95 0,-74.09 -15,-58 1003,-1077 794.2,-795 990,-986.07 1024,-999.051 146.9,-56.129 292.9,75.051 252.7,227.051 -10.6,39.91 -102.6,135 -988.2,1022 -551.1,552 -992.6,986.4 -1013.5,997.29 -43.4,22.61 -118,25.2 -163,5.66"
        clip-rule="evenodd" id="path380" />
    </clipPath>
    <clipPath clipPathUnits="userSpaceOnUse" id="clipPath388">
      <path d="M 0,0 H 30000 V 7480 H 0 Z" id="path386" />
    </clipPath>
    <clipPath clipPathUnits="userSpaceOnUse" id="clipPath398">
      <path
        d="m 23301,3211.8 c -19.6,-10.53 -48.4,-35.3 -65.5,-56.3 l -30.5,-37.5 -3,-459 c -2.9,-446 -2.4,-460.13 17.5,-499 74.6,-145.48 306.2,-121 350,37 6.6,23.8 10.5,195 10.5,458 0,388 -1.4,423.05 -18.5,460 -21.7,47 -64,89.4 -104.5,104.67 -43,16.23 -118.2,12.44 -156,-7.87"
        clip-rule="evenodd" id="path396" />
    </clipPath>
    <clipPath clipPathUnits="userSpaceOnUse" id="clipPath404">
      <path d="M 0,0 H 30000 V 7480 H 0 Z" id="path402" />
    </clipPath>
    <clipPath clipPathUnits="userSpaceOnUse" id="clipPath414">
      <path
        d="m 25372,3135.26 c -101.3,-31.81 -258.7,-142.26 -370.9,-260.26 -287.9,-302.66 -385.4,-736 -256.9,-1141 88.2,-278 306.4,-530.53 570.8,-660.69 75,-36.93 97.5,-43.64 135,-40.31 108,9.6 180,83.2 180,184 0,56 -23,114.92 -56,143.53 -10.6,9.18 -50,32.62 -89,52.94 -184.9,96.33 -321.9,260.53 -385.1,461.53 -29.9,95.32 -37.8,263 -17,361 18.3,86 52.4,173.47 97.9,251 46.3,79 179.6,210.21 257.2,253.15 124,68.67 150,89.14 172.6,135.85 46.3,95.51 8.4,200.4 -90.6,251.16 -49.9,25.59 -86,27.56 -148,8.1"
        clip-rule="evenodd" id="path412" />
    </clipPath>
    <clipPath clipPathUnits="userSpaceOnUse" id="clipPath420">
      <path d="M 0,0 H 30000 V 7480 H 0 Z" id="path418" />
    </clipPath>
    <clipPath clipPathUnits="userSpaceOnUse" id="clipPath430">
      <path
        d="m 26151,3138.9 c -44,-17.54 -81.7,-50.93 -101.6,-89.9 -39.2,-77 -16.1,-192.08 47.6,-236.47 15.4,-10.71 56,-34.21 90,-52.03 34.2,-17.95 92,-57.76 129,-88.92 89,-74.95 111.4,-88.84 155,-96.29 78,-13.33 175,39.51 205.2,111.71 23.4,56 17.7,124.43 -14.1,172 -49.2,73.48 -205.1,192.84 -339.1,259.64 -65,32.41 -124.1,39.37 -172,20.26"
        clip-rule="evenodd" id="path428" />
    </clipPath>
    <clipPath clipPathUnits="userSpaceOnUse" id="clipPath436">
      <path d="M 0,0 H 30000 V 7480 H 0 Z" id="path434" />
    </clipPath>
    <clipPath clipPathUnits="userSpaceOnUse" id="clipPath446">
      <path
        d="m 28383,3131.2 c -133.1,-46.12 -335,-207.2 -446.4,-356.2 -76.7,-102.62 -159.8,-275 -193.3,-401 -24,-90.44 -26.3,-115 -26.3,-284 0,-168 2.4,-194.01 26.2,-283 85.3,-319 301.4,-587.78 588.8,-732.25 79,-39.71 99.8,-46.1 138,-42.46 69,6.57 118,34.62 151.5,86.71 26.4,41.12 29.1,53 26.1,112 -4.4,87.95 -32.6,125.08 -135.6,178.81 -196.3,102.4 -341.7,281.19 -398.7,490.19 -27.5,101 -24.7,301.99 5.6,400 64.3,208 194.8,364.26 394.1,471.83 55,29.68 87.7,54.73 104.6,80.17 65.9,99.32 27.4,229.41 -82.6,279.15 -50.6,22.91 -86,22.92 -152,0.05"
        clip-rule="evenodd" id="path444" />
    </clipPath>
    <clipPath clipPathUnits="userSpaceOnUse" id="clipPath452">
      <path d="M 0,0 H 30000 V 7480 H 0 Z" id="path450" />
    </clipPath>
    <clipPath clipPathUnits="userSpaceOnUse" id="clipPath462">
      <path
        d="m 29155,3125.98 c -96,-49.15 -132,-154.98 -85.3,-250.98 23.2,-47.7 37.3,-58.82 170.3,-134.42 166.8,-94.84 314.6,-297.58 354.7,-486.58 73,-344 -96.2,-690.39 -414.7,-849.16 -77,-38.38 -107.8,-70.69 -125.6,-131.84 -34.2,-116.99 42.6,-227.45 166.6,-239.68 49.4,-4.86 62,-1.3 147,41.41 316.5,159.02 546.8,467.27 607,812.27 18.5,106 18.8,302.6 0.5,405 -61.7,346 -295.2,656.6 -614.5,817.53 -88,44.34 -142.9,48.73 -206,16.45"
        clip-rule="evenodd" id="path460" />
    </clipPath>
    <clipPath clipPathUnits="userSpaceOnUse" id="clipPath468">
      <path d="M 0,0 H 30000 V 7480 H 0 Z" id="path466" />
    </clipPath>
    <clipPath clipPathUnits="userSpaceOnUse" id="clipPath478">
      <path
        d="m 18385,2426 c -17,-7.37 -39.5,-23.4 -51.8,-37 -23,-25.28 -656.7,-1122 -679.5,-1176 -38,-90 2.1,-199.87 88.3,-241.711 75,-36.41 154.1,-24.469 217,32.781 12.6,11.5 74.6,111.93 137.5,222.93 l 114.5,202 348,3 348,3 38,28.95 c 110.9,84.46 95,255.93 -30,324.58 -24.4,13.38 -72.5,17.41 -256.5,21.47 l -226.5,5 95.6,160 c 139.3,233 152.7,276.83 110.9,363 -30.6,63.1 -94.5,101.74 -167.5,101.32 -31,-0.18 -69.4,-6.12 -86,-13.32"
        clip-rule="evenodd" id="path476" />
    </clipPath>
    <clipPath clipPathUnits="userSpaceOnUse" id="clipPath484">
      <path d="M 0,0 H 30000 V 7480 H 0 Z" id="path482" />
    </clipPath>
    <clipPath clipPathUnits="userSpaceOnUse" id="clipPath494">
      <path
        d="m 21405,2106.49 c -42.3,-19.06 -92.6,-79.49 -105.2,-126.49 -7.2,-26.64 -9.8,-183 -7.9,-468 3.2,-479 0.4,-460.85 80.1,-525.27 86.1,-69.679 226.6,-37.73 278.1,63.27 18.9,37.08 19.9,61 19.9,487 0,501 2.1,485.28 -74,547 -30.4,24.68 -48,30.53 -99,33 -38,1.84 -73.6,-2.23 -92,-10.51"
        clip-rule="evenodd" id="path492" />
    </clipPath>
    <clipPath clipPathUnits="userSpaceOnUse" id="clipPath500">
      <path d="M 0,0 H 30000 V 7480 H 0 Z" id="path498" />
    </clipPath>
    <clipPath clipPathUnits="userSpaceOnUse" id="clipPath510">
      <path
        d="m 26432,1595.1 c -18,-8.24 -58,-37.15 -88,-63.6 -30.4,-26.82 -93,-70.35 -140,-97.38 -124,-71.32 -151.5,-97.12 -169.6,-159.12 -12.8,-44 -13.4,-61.15 -3.4,-101 21,-83.85 102,-144 194,-144 93.1,0 396.3,205 445.1,301 43.3,85 13,200.82 -65.1,248.85 -45,27.69 -129.5,35.14 -173,15.25"
        clip-rule="evenodd" id="path508" />
    </clipPath>
    <clipPath clipPathUnits="userSpaceOnUse" id="clipPath516">
      <path d="M 0,0 H 30000 V 7480 H 0 Z" id="path514" />
    </clipPath>
    <clipPath clipPathUnits="userSpaceOnUse" id="clipPath526">
      <path
        d="m 15625,1311.54 c -68.6,-31.68 -115.6,-102.54 -115,-173.54 0.5,-68 59.7,-153.301 123,-177.359 18.3,-6.942 181,-10.641 468,-10.641 417,0 442,1.012 478,19.32 46,23.379 88.6,71.09 97,108.68 3.3,15 7.7,32.78 9.9,40 7.5,24.75 -17.8,107 -42.9,140 -14.6,19.07 -44,42.34 -67,53 -38.1,17.65 -72,19 -476,19 -402,0 -438,-1.4 -475,-18.46"
        clip-rule="evenodd" id="path524" />
    </clipPath>
    <clipPath clipPathUnits="userSpaceOnUse" id="clipPath532">
      <path d="M 0,0 H 30000 V 7480 H 0 Z" id="path530" />
    </clipPath>
  </defs>
  <sodipodi:namedview pagecolor="#ffffff" bordercolor="#666666" borderopacity="1" objecttolerance="10"
    gridtolerance="10" guidetolerance="10" inkscape:pageopacity="0" inkscape:pageshadow="2" inkscape:window-width="640"
    inkscape:window-height="480" id="namedview4" />
  <g id="g10" inkscape:groupmode="layer" inkscape:label="ink_ext_XXXXXX"
    transform="matrix(1.3333333,0,0,-1.3333333,0,997.33333)">
    <g id="g12" transform="scale(0.1)">
      <g id="g14">
        <g id="g16" clip-path="url(#clipPath20)">
          <path d="m 8340,0 h 370 v 7480 h -370 z" style="fill:#df101a;fill-opacity:1;fill-rule:nonzero;stroke:none"
            id="path22" />
        </g>
      </g>
      <g id="g24">
        <g id="g26" clip-path="url(#clipPath30)">
          <g id="g32" clip-path="url(#clipPath36)">
            <path d="M -10,2819.21 H 6373 V 6476.32 H -10 Z"
              style="fill:#df101a;fill-opacity:1;fill-rule:nonzero;stroke:none" id="path38" />
          </g>
        </g>
      </g>
      <g id="g40">
        <g id="g42" clip-path="url(#clipPath46)">
          <g id="g48" clip-path="url(#clipPath52)">
            <path d="m 11410,4907.28 h 2651.06 V 6437.63 H 11410 Z"
              style="fill:#df101a;fill-opacity:1;fill-rule:nonzero;stroke:none" id="path54" />
          </g>
        </g>
      </g>
      <g id="g56">
        <g id="g58" clip-path="url(#clipPath62)">
          <g id="g64" clip-path="url(#clipPath68)">
            <path d="m 15250,4110.16 h 404.332 v 2312.3 H 15250 Z"
              style="fill:#df101a;fill-opacity:1;fill-rule:nonzero;stroke:none" id="path70" />
          </g>
        </g>
      </g>
      <g id="g72">
        <g id="g74" clip-path="url(#clipPath78)">
          <g id="g80" clip-path="url(#clipPath84)">
            <path d="m 19815.7,4200 h 936.363 V 6421.57 H 19815.7 Z"
              style="fill:#df101a;fill-opacity:1;fill-rule:nonzero;stroke:none" id="path86" />
          </g>
        </g>
      </g>
      <g id="g88">
        <g id="g90" clip-path="url(#clipPath94)">
          <g id="g96" clip-path="url(#clipPath100)">
            <path d="m 21045.5,4181.3 h 924.48 v 2236.12 h -924.48 z"
              style="fill:#df101a;fill-opacity:1;fill-rule:nonzero;stroke:none" id="path102" />
          </g>
        </g>
      </g>
      <g id="g104">
        <g id="g106" clip-path="url(#clipPath110)">
          <g id="g112" clip-path="url(#clipPath116)">
            <path d="m 23119.8,4081.47 h 400.191 v 2340.1 H 23119.8 Z"
              style="fill:#df101a;fill-opacity:1;fill-rule:nonzero;stroke:none" id="path118" />
          </g>
        </g>
      </g>
      <g id="g120">
        <g id="g122" clip-path="url(#clipPath126)">
          <g id="g128" clip-path="url(#clipPath132)">
            <path d="m 23916.4,6020.35 h 1228.53 v 399.18 H 23916.4 Z"
              style="fill:#df101a;fill-opacity:1;fill-rule:nonzero;stroke:none" id="path134" />
          </g>
        </g>
      </g>
      <g id="g136">
        <g id="g138" clip-path="url(#clipPath142)">
          <g id="g144" clip-path="url(#clipPath148)">
            <path d="m 26229.7,4081.47 h 400.289 V 6421.6 H 26229.7 Z"
              style="fill:#df101a;fill-opacity:1;fill-rule:nonzero;stroke:none" id="path150" />
          </g>
        </g>
      </g>
      <g id="g152">
        <g id="g154" clip-path="url(#clipPath158)">
          <g id="g160" clip-path="url(#clipPath164)">
            <path d="m 16710.7,4185.94 h 1022.77 V 6339.82 H 16710.7 Z"
              style="fill:#df101a;fill-opacity:1;fill-rule:nonzero;stroke:none" id="path166" />
          </g>
        </g>
      </g>
      <g id="g168">
        <g id="g170" clip-path="url(#clipPath174)">
          <g id="g176" clip-path="url(#clipPath180)">
            <path d="m 18080,5740 h 696.859 v 589.91 H 18080 Z"
              style="fill:#df101a;fill-opacity:1;fill-rule:nonzero;stroke:none" id="path182" />
          </g>
        </g>
      </g>
      <g id="g184">
        <g id="g186" clip-path="url(#clipPath190)">
          <g id="g192" clip-path="url(#clipPath196)">
            <path d="m 23915.6,5056.38 h 878.66 v 409.25 h -878.66 z"
              style="fill:#df101a;fill-opacity:1;fill-rule:nonzero;stroke:none" id="path198" />
          </g>
        </g>
      </g>
      <g id="g200">
        <g id="g202" clip-path="url(#clipPath206)">
          <g id="g208" clip-path="url(#clipPath212)">
            <path d="m 17687,4180.46 h 1073.01 V 5435.87 H 17687 Z"
              style="fill:#df101a;fill-opacity:1;fill-rule:nonzero;stroke:none" id="path214" />
          </g>
        </g>
      </g>
      <g id="g216">
        <g id="g218" clip-path="url(#clipPath222)">
          <g id="g224" clip-path="url(#clipPath228)">
            <path d="m 11440,4110 h 400.871 V 5317.6 H 11440 Z"
              style="fill:#df101a;fill-opacity:1;fill-rule:nonzero;stroke:none" id="path230" />
          </g>
        </g>
      </g>
      <g id="g232">
        <g id="g234" clip-path="url(#clipPath238)">
          <g id="g240" clip-path="url(#clipPath244)">
            <path d="m 13660,4109.38 h 399.648 V 5316.33 H 13660 Z"
              style="fill:#df101a;fill-opacity:1;fill-rule:nonzero;stroke:none" id="path246" />
          </g>
        </g>
      </g>
      <g id="g248">
        <g id="g250" clip-path="url(#clipPath254)">
          <g id="g256" clip-path="url(#clipPath260)">
            <path d="m 23919.4,4110 h 1229.86 v 400 H 23919.4 Z"
              style="fill:#df101a;fill-opacity:1;fill-rule:nonzero;stroke:none" id="path262" />
          </g>
        </g>
      </g>
      <g id="g264">
        <g id="g266" clip-path="url(#clipPath270)">
          <g id="g272" clip-path="url(#clipPath276)">
            <path d="m 27017.2,4110 h 1242.08 v 400 H 27017.2 Z"
              style="fill:#df101a;fill-opacity:1;fill-rule:nonzero;stroke:none" id="path278" />
          </g>
        </g>
      </g>
      <g id="g280">
        <g id="g282" clip-path="url(#clipPath286)">
          <g id="g288" clip-path="url(#clipPath292)">
            <path d="m -1.08984,923.738 h 935.5 v 2836.51 h -935.5 z"
              style="fill:#df101a;fill-opacity:1;fill-rule:nonzero;stroke:none" id="path294" />
          </g>
        </g>
      </g>
      <g id="g296">
        <g id="g298" clip-path="url(#clipPath302)">
          <g id="g304" clip-path="url(#clipPath308)">
            <path d="m 5310,892.691 h 924.371 v 2908.67 H 5310 Z"
              style="fill:#df101a;fill-opacity:1;fill-rule:nonzero;stroke:none" id="path310" />
          </g>
        </g>
      </g>
      <g id="g312">
        <g id="g314" clip-path="url(#clipPath318)">
          <g id="g320" clip-path="url(#clipPath324)">
            <path d="m 11440,927.738 h 400 v 2338.14 h -400 z"
              style="fill:#df101a;fill-opacity:1;fill-rule:nonzero;stroke:none" id="path326" />
          </g>
        </g>
      </g>
      <g id="g328">
        <g id="g330" clip-path="url(#clipPath334)">
          <g id="g336" clip-path="url(#clipPath340)">
            <path d="m 12197.4,940 h 1390.28 V 3239.46 H 12197.4 Z"
              style="fill:#df101a;fill-opacity:1;fill-rule:nonzero;stroke:none" id="path342" />
          </g>
        </g>
      </g>
      <g id="g344">
        <g id="g346" clip-path="url(#clipPath350)">
          <g id="g352" clip-path="url(#clipPath356)">
            <path d="m 14710,906.238 h 405.121 v 2358.3 H 14710 Z"
              style="fill:#df101a;fill-opacity:1;fill-rule:nonzero;stroke:none" id="path358" />
          </g>
        </g>
      </g>
      <g id="g360">
        <g id="g362" clip-path="url(#clipPath366)">
          <g id="g368" clip-path="url(#clipPath372)">
            <path d="m 18725.6,917.449 h 1560.22 v 2332.16 H 18725.6 Z"
              style="fill:#df101a;fill-opacity:1;fill-rule:nonzero;stroke:none" id="path374" />
          </g>
        </g>
      </g>
      <g id="g376">
        <g id="g378" clip-path="url(#clipPath382)">
          <g id="g384" clip-path="url(#clipPath388)">
            <path d="m 21265,897.82 h 2354.9 V 3245.49 H 21265 Z"
              style="fill:#df101a;fill-opacity:1;fill-rule:nonzero;stroke:none" id="path390" />
          </g>
        </g>
      </g>
      <g id="g392">
        <g id="g394" clip-path="url(#clipPath398)">
          <g id="g400" clip-path="url(#clipPath404)">
            <path d="m 23189.1,2004.52 h 400.918 V 3245.9 H 23189.1 Z"
              style="fill:#df101a;fill-opacity:1;fill-rule:nonzero;stroke:none" id="path406" />
          </g>
        </g>
      </g>
      <g id="g408">
        <g id="g410" clip-path="url(#clipPath414)">
          <g id="g416" clip-path="url(#clipPath420)">
            <path d="m 24605.7,1019.67 h 1061.16 V 3164.72 H 24605.7 Z"
              style="fill:#df101a;fill-opacity:1;fill-rule:nonzero;stroke:none" id="path422" />
          </g>
        </g>
      </g>
      <g id="g424">
        <g id="g426" clip-path="url(#clipPath430)">
          <g id="g432" clip-path="url(#clipPath436)">
            <path d="m 26000.2,2551.96 h 709.371 v 616.051 H 26000.2 Z"
              style="fill:#df101a;fill-opacity:1;fill-rule:nonzero;stroke:none" id="path438" />
          </g>
        </g>
      </g>
      <g id="g440">
        <g id="g442" clip-path="url(#clipPath446)">
          <g id="g448" clip-path="url(#clipPath452)">
            <path d="m 27707,1018.65 h 986.469 V 3164.07 H 27707 Z"
              style="fill:#df101a;fill-opacity:1;fill-rule:nonzero;stroke:none" id="path454" />
          </g>
        </g>
      </g>
      <g id="g456">
        <g id="g458" clip-path="url(#clipPath462)">
          <g id="g464" clip-path="url(#clipPath468)">
            <path d="m 29010.2,1018.46 h 993.57 v 2149.8 h -993.57 z"
              style="fill:#df101a;fill-opacity:1;fill-rule:nonzero;stroke:none" id="path470" />
          </g>
        </g>
      </g>
      <g id="g472">
        <g id="g474" clip-path="url(#clipPath478)">
          <g id="g480" clip-path="url(#clipPath484)">
            <path d="m 17605.7,924.879 h 1460.17 v 1524.86 H 17605.7 Z"
              style="fill:#df101a;fill-opacity:1;fill-rule:nonzero;stroke:none" id="path486" />
          </g>
        </g>
      </g>
      <g id="g488">
        <g id="g490" clip-path="url(#clipPath494)">
          <g id="g496" clip-path="url(#clipPath500)">
            <path d="m 21280,907.051 h 402.168 v 1221.79 H 21280 Z"
              style="fill:#df101a;fill-opacity:1;fill-rule:nonzero;stroke:none" id="path502" />
          </g>
        </g>
      </g>
      <g id="g504">
        <g id="g506" clip-path="url(#clipPath510)">
          <g id="g512" clip-path="url(#clipPath516)">
            <path d="m 26011,1020 h 712.313 v 604.988 H 26011 Z"
              style="fill:#df101a;fill-opacity:1;fill-rule:nonzero;stroke:none" id="path518" />
          </g>
        </g>
      </g>
      <g id="g520">
        <g id="g522" clip-path="url(#clipPath526)">
          <g id="g528" clip-path="url(#clipPath532)">
            <path d="m 15499.4,940 h 1203.99 v 400 H 15499.4 Z"
              style="fill:#df101a;fill-opacity:1;fill-rule:nonzero;stroke:none" id="path534" />
          </g>
        </g>
      </g>
    </g>
  </g>
</svg>