<svg width="302" height="74" viewBox="0 0 302 74" fill="none" xmlns="http://www.w3.org/2000/svg">
<rect x="2" y="37" width="10" height="28" rx="5" fill="#DE121E"/>
<rect x="55" y="37" width="10" height="28" rx="5" fill="#DE121E"/>
<rect x="0.256958" y="13.7883" width="9.28878" height="47.8414" rx="4.64439" transform="rotate(-43.4609 0.256958 13.7883)" fill="#DE121E"/>
<rect x="60.9" y="7.9" width="9.28878" height="47.8414" rx="4.64439" transform="rotate(45.05 60.9 7.9)" fill="#DE121E"/>
<rect x="116.426" y="21.3336" width="4.16633" height="11.6664" rx="2.08316" fill="#DE121E"/>
<rect x="138.508" y="21.3336" width="4.16633" height="11.6664" rx="2.08316" fill="#DE121E"/>
<rect width="3.87012" height="19.9329" rx="1.93506" transform="matrix(0.725823 -0.687882 0.687837 0.725865 115.7 11.6622)" fill="#DE121E"/>
<rect width="3.87013" height="19.9329" rx="1.93507" transform="matrix(0.706467 0.707746 -0.707702 0.706512 140.966 9.20879)" fill="#DE121E"/>
<rect x="86" width="3" height="74" rx="1" fill="#DE121E"/>
<rect x="154" y="10" width="4" height="23" rx="2" fill="#DE121E"/>
<rect x="218" y="10" width="4" height="16" rx="2" fill="#DE121E"/>
<path d="M202 24L202.974 26.2715C203.318 27.0764 203.869 27.7765 204.569 28.3019L207.5 30.5" stroke="#DE121E" stroke-width="4.2"/>
<rect x="200" y="10" width="4" height="16" rx="2" fill="#DE121E"/>
<rect x="209.278" y="32.3288" width="4.2336" height="4.26076" rx="2.1168" transform="rotate(179.719 209.278 32.3288)" fill="#DE121E"/>
<rect x="199.997" y="25.4554" width="2.45497" height="2.21817" rx="1.10909" transform="rotate(-89.5605 199.997 25.4554)" fill="#DE121E"/>
<path d="M220.275 24L219.301 26.2715C218.956 27.0764 218.406 27.7765 217.705 28.3019L214.775 30.5" stroke="#DE121E" stroke-width="4.2"/>
<rect width="4" height="16" rx="2" transform="matrix(-1 0 0 1 222.275 10)" fill="#DE121E"/>
<rect width="4.2336" height="4.26076" rx="2.1168" transform="matrix(0.999988 0.00489579 0.00489579 -0.999988 212.997 32.3288)" fill="#DE121E"/>
<rect width="2.45497" height="2.21817" rx="1.10909" transform="matrix(-0.00767127 -0.999971 -0.999971 0.00767127 222.278 25.4554)" fill="#DE121E"/>
<rect x="215" y="53" width="4" height="12" rx="2" fill="#DE121E"/>
<rect x="234" y="42" width="4" height="12" rx="2" fill="#DE121E"/>
<rect x="213.512" y="43.7013" width="4.38764" height="31.3045" rx="2.19382" transform="rotate(-44.5111 213.512 43.7013)" fill="#DE121E"/>
<rect x="186" y="20" width="4" height="10" rx="2" fill="#DE121E"/>
<rect x="179.994" y="23.9849" width="4" height="10" rx="2" transform="rotate(-89.8267 179.994 23.9849)" fill="#DE121E"/>
<rect x="183.248" y="31.9947" width="4" height="4.607" rx="2" transform="rotate(-89.8267 183.248 31.9947)" fill="#DE121E"/>
<rect x="185.875" y="32.7724" width="4.06532" height="6.3159" rx="2.03266" transform="rotate(-133.415 185.875 32.7724)" fill="#DE121E"/>
<rect x="182.826" y="14.9934" width="4" height="4.42854" rx="2" transform="rotate(-89.8267 182.826 14.9934)" fill="#DE121E"/>
<rect x="186.015" y="12.8146" width="3.38979" height="4.42854" rx="1.6949" transform="rotate(-0.815881 186.015 12.8146)" fill="#DE121E"/>
<rect x="190.228" y="14.4016" width="4" height="6.02945" rx="2" transform="rotate(129.872 190.228 14.4016)" fill="#DE121E"/>
<rect x="177.48" y="32.7676" width="4" height="4.21547" rx="2" transform="rotate(-147.861 177.48 32.7676)" fill="#DE121E"/>
<rect x="176.41" y="15.8663" width="4.15936" height="4.05102" rx="2.02551" transform="rotate(-125.409 176.41 15.8663)" fill="#DE121E"/>
<path d="M177 13L176.557 13.2398C176.238 13.4127 175.938 13.62 175.664 13.8578L174.188 15.1373C173.91 15.3784 173.659 15.6494 173.44 15.9455L172.54 17.1652C172.133 17.7159 171.844 18.3442 171.69 19.0111L171.302 20.6901C171.104 21.5481 171.136 22.4432 171.395 23.2849L171.736 24.3918C171.86 24.7957 172.035 25.1821 172.257 25.5419L173.149 26.9921C173.557 27.6549 174.114 28.2133 174.775 28.6229L177 30" stroke="#DE121E" stroke-width="4.2"/>
<rect x="261.826" y="46.9934" width="4" height="4.42854" rx="2" transform="rotate(-89.8267 261.826 46.9934)" fill="#DE121E"/>
<rect x="265.015" y="44.8146" width="3.38979" height="4.42854" rx="1.6949" transform="rotate(-0.815881 265.015 44.8146)" fill="#DE121E"/>
<rect x="269.228" y="46.4016" width="4" height="6.02945" rx="2" transform="rotate(129.872 269.228 46.4016)" fill="#DE121E"/>
<rect width="4" height="4.42854" rx="2" transform="matrix(0.00302389 0.999995 0.999995 -0.00302389 261.826 60.0143)" fill="#DE121E"/>
<rect width="3.38979" height="4.42854" rx="1.6949" transform="matrix(0.999899 0.0142393 0.0142393 -0.999899 265.015 62.1932)" fill="#DE121E"/>
<rect width="4" height="6.02945" rx="2" transform="matrix(-0.641074 -0.767479 -0.767479 0.641074 269.228 60.6062)" fill="#DE121E"/>
<rect x="256.48" y="64.7676" width="4" height="4.21547" rx="2" transform="rotate(-147.861 256.48 64.7676)" fill="#DE121E"/>
<rect x="255.41" y="47.8663" width="4.15936" height="4.05102" rx="2.02551" transform="rotate(-125.409 255.41 47.8663)" fill="#DE121E"/>
<path d="M256 45L255.557 45.2398C255.238 45.4128 254.938 45.62 254.664 45.8578L253.188 47.1373C252.91 47.3784 252.659 47.6494 252.44 47.9455L251.54 49.1652C251.133 49.7159 250.844 50.3442 250.69 51.0111L250.302 52.6901C250.104 53.5481 250.136 54.4432 250.395 55.2849L250.736 56.3918C250.86 56.7957 251.035 57.1821 251.257 57.5419L252.149 58.9921C252.557 59.6549 253.114 60.2133 253.775 60.6229L256 62" stroke="#DE121E" stroke-width="4.2"/>
<rect x="286.48" y="64.7676" width="4" height="4.21547" rx="2" transform="rotate(-147.861 286.48 64.7676)" fill="#DE121E"/>
<rect x="285.41" y="47.8663" width="4.15936" height="4.05102" rx="2.02551" transform="rotate(-125.409 285.41 47.8663)" fill="#DE121E"/>
<path d="M286 45L285.557 45.2398C285.238 45.4128 284.938 45.62 284.664 45.8578L283.188 47.1373C282.91 47.3784 282.659 47.6494 282.44 47.9455L281.54 49.1652C281.133 49.7159 280.844 50.3442 280.69 51.0111L280.302 52.6901C280.104 53.5481 280.136 54.4432 280.395 55.2849L280.736 56.3918C280.86 56.7957 281.035 57.1821 281.257 57.5419L282.149 58.9921C282.557 59.6549 283.114 60.2133 283.775 60.6229L286 62" stroke="#DE121E" stroke-width="4.2"/>
<rect width="4" height="4.21547" rx="2" transform="matrix(0.846758 -0.531978 -0.531978 -0.846758 293.243 64.7676)" fill="#DE121E"/>
<rect width="4.15936" height="4.05102" rx="2.02551" transform="matrix(0.579414 -0.815033 -0.815033 -0.579414 294.313 47.8663)" fill="#DE121E"/>
<path d="M293.723 45L294.166 45.2398C294.485 45.4128 294.784 45.62 295.059 45.8578L296.535 47.1373C296.813 47.3784 297.064 47.6494 297.283 47.9455L298.183 49.1652C298.59 49.7159 298.879 50.3442 299.033 51.0111L299.421 52.6901C299.619 53.5481 299.587 54.4432 299.328 55.2849L298.987 56.3918C298.863 56.7957 298.688 57.1821 298.466 57.5419L297.574 58.9921C297.166 59.6549 296.609 60.2133 295.947 60.6229L293.723 62" stroke="#DE121E" stroke-width="4.2"/>
<rect x="233" y="10" width="4" height="23" rx="2" fill="#DE121E"/>
<rect x="241" y="10" width="12" height="4" rx="2" fill="#DE121E"/>
<rect x="241" y="20" width="9" height="4" rx="2" fill="#DE121E"/>
<rect x="241" y="29" width="12" height="4" rx="2" fill="#DE121E"/>
<rect x="187.6" y="43.3068" width="4.38764" height="26.588" rx="2.19382" transform="rotate(-32.5219 187.6 43.3068)" fill="#DE121E"/>
<rect width="4.38764" height="17.5785" rx="2.19382" transform="matrix(-0.860471 -0.509499 -0.509499 0.860471 189.534 50.6855)" fill="#DE121E"/>
<rect x="181" y="56" width="11" height="4" rx="2" fill="#DE121E"/>
<rect x="149" y="42" width="4" height="23" rx="2" fill="#DE121E"/>
<rect x="157" y="61" width="12" height="4" rx="2" fill="#DE121E"/>
<rect x="117" y="42" width="4" height="23" rx="2" fill="#DE121E"/>
<path d="M124 51H133C134.105 51 135 51.8954 135 53V53C135 54.1046 134.105 55 133 55H124V51Z" fill="#DE121E"/>
<rect x="124" y="42" width="11" height="4" rx="2" fill="#DE121E"/>
<rect x="131.794" y="41.9742" width="3.43904" height="3.79022" rx="1.71952" transform="rotate(1.48725 131.794 41.9742)" fill="#DE121E"/>
<rect x="130.124" y="51.1005" width="5.07601" height="3.89202" rx="1.94601" transform="rotate(0.0893311 130.124 51.1005)" fill="#DE121E"/>
<path d="M133 44V44C134.769 44.5897 135.921 46.2951 135.807 48.1564L135.74 49.2461C135.637 50.9248 134.567 52.3904 133 53V53" stroke="#DE121E" stroke-width="4.2"/>
<path d="M124 54.9747H133C134.105 54.9747 135 54.0792 135 52.9747V52.9747C135 51.8701 134.105 50.9747 133 50.9747H124V54.9747Z" fill="#DE121E"/>
<rect width="11" height="4" rx="2" transform="matrix(1 0 0 -1 124 63.9747)" fill="#DE121E"/>
<rect width="3.43904" height="3.79022" rx="1.71952" transform="matrix(0.999663 -0.0259545 -0.0259545 -0.999663 131.794 64.0004)" fill="#DE121E"/>
<rect width="5.07601" height="3.89202" rx="1.94601" transform="matrix(0.999999 -0.00155912 -0.00155912 -0.999999 130.124 54.8741)" fill="#DE121E"/>
<path d="M133 61.9747V61.9747C134.769 61.385 135.921 59.6796 135.807 57.8183L135.74 56.7285C135.637 55.0498 134.567 53.5842 133 52.9747V52.9747" stroke="#DE121E" stroke-width="4.2"/>
</svg>
